<?xml version="1.0" encoding="UTF-8"?>
<svg xmlns="http://www.w3.org/2000/svg" width="1800" height="1120" viewBox="0 0 1800 1120">
  <defs>
    <style>
      .title { font: 700 34px "Noto Sans JP", "Yu Gothic", sans-serif; fill: #1f2937; }
      .section { font: 700 24px "Noto Sans JP", "Yu Gothic", sans-serif; fill: #111827; }
      .boxlabel { font: 600 17px "Noto Sans JP", "Yu Gothic", sans-serif; fill: #111827; }
      .small { font: 500 14px "Noto Sans JP", "Yu Gothic", sans-serif; fill: #374151; }
      .note { font: 400 13px "Noto Sans JP", "Yu Gothic", sans-serif; fill: #4b5563; }
      .box { rx: 14; ry: 14; stroke-width: 2; }
    </style>
    <marker id="arrow" markerWidth="12" markerHeight="12" refX="10" refY="6" orient="auto">
      <path d="M0,0 L12,6 L0,12 z" fill="#6b7280"/>
    </marker>
  </defs>

  <rect x="0" y="0" width="1800" height="1120" fill="#f8fafc"/>
  <text x="900" y="62" text-anchor="middle" class="title">画面遷移図（PERFUME_202603）</text>

  <text x="120" y="120" class="section">公開サイト</text>
  <text x="1280" y="120" class="section">管理機能</text>

  <!-- Public side -->
  <rect class="box" x="120" y="170" width="220" height="64" fill="#eef2ff" stroke="#6366f1"/>
  <text x="230" y="209" text-anchor="middle" class="boxlabel">index.html</text>

  <rect class="box" x="420" y="140" width="220" height="64" fill="#ffffff" stroke="#94a3b8"/>
  <text x="530" y="179" text-anchor="middle" class="boxlabel">brands.html</text>

  <rect class="box" x="420" y="235" width="220" height="64" fill="#ffffff" stroke="#94a3b8"/>
  <text x="530" y="274" text-anchor="middle" class="boxlabel">workshop.html</text>

  <rect class="box" x="420" y="330" width="220" height="64" fill="#ffffff" stroke="#94a3b8"/>
  <text x="530" y="369" text-anchor="middle" class="boxlabel">magazine.html</text>

  <rect class="box" x="420" y="425" width="220" height="64" fill="#ffffff" stroke="#94a3b8"/>
  <text x="530" y="464" text-anchor="middle" class="boxlabel">about.html</text>

  <rect class="box" x="420" y="520" width="220" height="64" fill="#ffffff" stroke="#94a3b8"/>
  <text x="530" y="559" text-anchor="middle" class="boxlabel">press.html</text>

  <rect class="box" x="420" y="615" width="220" height="64" fill="#ffffff" stroke="#94a3b8"/>
  <text x="530" y="654" text-anchor="middle" class="boxlabel">mail.html</text>

  <!-- Workshop children -->
  <rect class="box" x="740" y="205" width="290" height="56" fill="#f8fafc" stroke="#94a3b8"/>
  <text x="885" y="240" text-anchor="middle" class="small">workshop/casual.html</text>

  <rect class="box" x="740" y="275" width="290" height="56" fill="#f8fafc" stroke="#94a3b8"/>
  <text x="885" y="310" text-anchor="middle" class="small">workshop/holiday.html</text>

  <rect class="box" x="740" y="345" width="290" height="56" fill="#f8fafc" stroke="#16a34a"/>
  <text x="885" y="380" text-anchor="middle" class="small">workshop/registration.html</text>
  <text x="740" y="420" class="note">予約API呼び出しで処理完結（画面遷移なし）</text>

  <!-- Magazine children -->
  <rect class="box" x="740" y="470" width="290" height="56" fill="#f8fafc" stroke="#94a3b8"/>
  <text x="885" y="505" text-anchor="middle" class="small">magazine/001.html</text>

  <rect class="box" x="740" y="540" width="290" height="56" fill="#f8fafc" stroke="#94a3b8"/>
  <text x="885" y="575" text-anchor="middle" class="small">magazine/002.html</text>

  <!-- Press children -->
  <rect class="box" x="740" y="635" width="290" height="56" fill="#f8fafc" stroke="#94a3b8"/>
  <text x="885" y="670" text-anchor="middle" class="small">press/website-renewal.html</text>

  <rect class="box" x="740" y="705" width="290" height="56" fill="#f8fafc" stroke="#94a3b8"/>
  <text x="885" y="740" text-anchor="middle" class="small">press/solar-terms.html</text>

  <text x="740" y="790" class="note">mail.html: 登録/解除API呼び出しで処理完結（画面遷移なし）</text>

  <!-- Admin side -->
  <rect class="box" x="1260" y="220" width="220" height="64" fill="#ecfeff" stroke="#06b6d4"/>
  <text x="1370" y="259" text-anchor="middle" class="boxlabel">login.html</text>

  <rect class="box" x="1540" y="220" width="220" height="64" fill="#ecfeff" stroke="#0891b2"/>
  <text x="1650" y="259" text-anchor="middle" class="boxlabel">admin.html</text>

  <rect class="box" x="1260" y="320" width="220" height="56" fill="#f8fafc" stroke="#94a3b8"/>
  <text x="1370" y="355" text-anchor="middle" class="small">login.html?error</text>

  <rect class="box" x="1540" y="320" width="220" height="56" fill="#f8fafc" stroke="#94a3b8"/>
  <text x="1650" y="355" text-anchor="middle" class="small">login.html?logout</text>

  <!-- Arrows public -->
  <line x1="340" y1="202" x2="420" y2="172" stroke="#6b7280" stroke-width="2.5" marker-end="url(#arrow)"/>
  <line x1="340" y1="202" x2="420" y2="267" stroke="#6b7280" stroke-width="2.5" marker-end="url(#arrow)"/>
  <line x1="340" y1="202" x2="420" y2="362" stroke="#6b7280" stroke-width="2.5" marker-end="url(#arrow)"/>
  <line x1="340" y1="202" x2="420" y2="457" stroke="#6b7280" stroke-width="2.5" marker-end="url(#arrow)"/>
  <line x1="340" y1="202" x2="420" y2="552" stroke="#6b7280" stroke-width="2.5" marker-end="url(#arrow)"/>
  <line x1="340" y1="202" x2="420" y2="647" stroke="#6b7280" stroke-width="2.5" marker-end="url(#arrow)"/>

  <line x1="640" y1="267" x2="740" y2="233" stroke="#94a3b8" stroke-width="2.3" marker-end="url(#arrow)"/>
  <line x1="640" y1="267" x2="740" y2="303" stroke="#94a3b8" stroke-width="2.3" marker-end="url(#arrow)"/>
  <line x1="640" y1="267" x2="740" y2="373" stroke="#16a34a" stroke-width="2.3" marker-end="url(#arrow)"/>

  <line x1="640" y1="362" x2="740" y2="498" stroke="#94a3b8" stroke-width="2.3" marker-end="url(#arrow)"/>
  <line x1="640" y1="362" x2="740" y2="568" stroke="#94a3b8" stroke-width="2.3" marker-end="url(#arrow)"/>

  <line x1="640" y1="552" x2="740" y2="663" stroke="#94a3b8" stroke-width="2.3" marker-end="url(#arrow)"/>
  <line x1="640" y1="552" x2="740" y2="733" stroke="#94a3b8" stroke-width="2.3" marker-end="url(#arrow)"/>

  <!-- Arrows admin -->
  <line x1="1480" y1="252" x2="1540" y2="252" stroke="#06b6d4" stroke-width="2.8" marker-end="url(#arrow)"/>
  <text x="1510" y="238" text-anchor="middle" class="note">認証成功</text>

  <line x1="1370" y1="284" x2="1370" y2="320" stroke="#94a3b8" stroke-width="2.3" marker-end="url(#arrow)"/>
  <text x="1396" y="307" class="note">認証失敗</text>

  <line x1="1650" y1="284" x2="1650" y2="320" stroke="#94a3b8" stroke-width="2.3" marker-end="url(#arrow)"/>
  <text x="1676" y="307" class="note">ログアウト</text>

  <line x1="1540" y1="348" x2="1480" y2="348" stroke="#94a3b8" stroke-width="2.3" marker-end="url(#arrow)"/>

  <text x="900" y="1065" text-anchor="middle" class="note">注: 予約登録・メール登録/解除はAPI呼び出しにより同一画面内で完結する設計</text>
</svg>
